<svg xmlns="http://www.w3.org/2000/svg" width="24" height="24" viewBox="0 0 24 24">
  <g id="requisition" transform="translate(-51 -78)">
    <rect id="Rectangle_832" data-name="Rectangle 832" width="24" height="24" transform="translate(51 78)" fill="none"/>
    <g id="Group_1535" data-name="Group 1535" transform="translate(-253 -1900)">
      <path id="Path_279" data-name="Path 279" d="M14.874,9.443V6.435L8.438,0H3.1A3.1,3.1,0,0,0,0,3.1V15.641a3.1,3.1,0,0,0,3.1,3.09H6.512a6.738,6.738,0,1,0,8.362-9.288M9.164,5.71v-1.5l1.5,1.5ZM5.841,16.266H3.1a.63.63,0,0,1-.634-.624V3.1A.634.634,0,0,1,3.1,2.467H6.7V6.944A1.235,1.235,0,0,0,7.931,8.177h4.477v.852a6.762,6.762,0,0,0-6.587,6.743c0,.181.007.342.02.493m2.446-.493a4.3,4.3,0,0,1,4.28-4.279,4.242,4.242,0,0,1,2.11.562,4.285,4.285,0,0,1-2.11,8.006,4.225,4.225,0,0,1-3.28-1.547,4.112,4.112,0,0,1-.948-2.138,3.59,3.59,0,0,1-.051-.6" transform="translate(306 1979)" fill="#fff"/>
      <path id="Path_280" data-name="Path 280" d="M11.185,17.749h1.037v1.037a.909.909,0,0,0,.09.394.938.938,0,0,0,1.788-.394V17.749h1.037a.939.939,0,0,0,0-1.878H14.1V14.835a.939.939,0,0,0-1.878,0v1.037H11.185a.937.937,0,0,0-.935.935.9.9,0,0,0,.2.581.922.922,0,0,0,.731.361" transform="translate(305.402 1977.966)" fill="#fff"/>
    </g>
  </g>
</svg>
