<svg xmlns="http://www.w3.org/2000/svg" width="24" height="24" viewBox="0 0 24 24">
  <g id="list" transform="translate(-70 -110)">
    <path id="Icon_awesome-list" data-name="Icon awesome-list" d="M3.405,17H.681A.681.681,0,0,0,0,17.676V20.4a.681.681,0,0,0,.681.681H3.405a.681.681,0,0,0,.681-.681V17.676A.681.681,0,0,0,3.405,17Zm0-13.62H.681A.681.681,0,0,0,0,4.056V6.78a.681.681,0,0,0,.681.681H3.405a.681.681,0,0,0,.681-.681V4.056A.681.681,0,0,0,3.405,3.375Zm0,6.81H.681A.681.681,0,0,0,0,10.866V13.59a.681.681,0,0,0,.681.681H3.405a.681.681,0,0,0,.681-.681V10.866A.681.681,0,0,0,3.405,10.185Zm17.706,7.491H7.491a.681.681,0,0,0-.681.681v1.362a.681.681,0,0,0,.681.681h13.62a.681.681,0,0,0,.681-.681V18.357A.681.681,0,0,0,21.111,17.676Zm0-13.62H7.491a.681.681,0,0,0-.681.681V6.1a.681.681,0,0,0,.681.681h13.62a.681.681,0,0,0,.681-.681V4.737A.681.681,0,0,0,21.111,4.056Zm0,6.81H7.491a.681.681,0,0,0-.681.681v1.362a.681.681,0,0,0,.681.681h13.62a.681.681,0,0,0,.681-.681V11.547A.681.681,0,0,0,21.111,10.866Z" transform="translate(71 109.625)" fill="#fff"/>
    <rect id="base" width="24" height="24" transform="translate(70 110)" fill="none"/>
  </g>
</svg>
