<svg xmlns="http://www.w3.org/2000/svg" width="104.104" height="72.998" viewBox="0 0 104.104 72.998">
  <g id="logo" transform="translate(-86.3 -28.542)">
    <path id="Path_2" data-name="Path 2" d="M168.5,176.274h5.6V165.441h5.272c6.391,0,9.677-3.936,9.677-9.244,0-4.875-3.1-8.7-9.136-8.7h-2.564l-8.847,8.594v20.185Zm7.908-28.815H168.5v7.655Zm-2.311,5.055h5.416a3.562,3.562,0,0,1,3.864,3.864,3.652,3.652,0,0,1-3.972,4.008h-5.3Zm31.957-.686c6.464,0,9.858,4.911,9.858,9.93,0,5.164-3.394,10.111-9.858,10.111s-9.858-4.947-9.858-10.111c.036-5.02,3.43-9.93,9.858-9.93Zm0-5.128c-10.183,0-15.563,7.077-15.563,15.094,0,8.089,5.416,15.238,15.563,15.238s15.563-7.15,15.563-15.238c.036-8.017-5.38-15.094-15.563-15.094Zm35.965,2.2a12.782,12.782,0,0,0-7.15-1.878c-6.789,0-11.013,3.611-11.013,8.666,0,4.225,2.311,6.139,5.236,7.366l4.947,2.058c2.13.867,3.1,1.625,3.1,3.178,0,2.275-1.8,3.322-4.766,3.322a13.971,13.971,0,0,1-7.908-2.672v5.6c1.625,1.336,5.019,2.167,7.764,2.167,6.9,0,10.688-3.5,10.688-8.919,0-3.936-2.2-6.03-5.741-7.511l-4.658-1.986c-1.914-.794-2.889-1.517-2.889-3.069,0-2.094,1.8-3.142,5.091-3.142a10.961,10.961,0,0,1,6.03,1.914l1.264-5.091Z" transform="translate(-52.518 -75.492)" fill="#474545" fill-rule="evenodd"/>
    <path id="Path_3" data-name="Path 3" d="M176.589,148.8H168.5v7.836Z" transform="translate(-52.518 -76.833)" fill="#45b653"/>
    <path id="Path_4" data-name="Path 4" d="M86.3,46h21.088v5.236H91.536v5.741h13.072v5.164H91.536v9.136h15.852v5.236H86.3Z" transform="translate(0 -11.154)" fill="#ed3237"/>
    <path id="Path_5" data-name="Path 5" d="M166.413,99.3l-5.669-8.161,3.5-4.694h0l.072-.108,9.425,13h-7.33Zm-6.1-8.161-5.669,8.2H147.6l8.991-12.819c2.167,2.455,3.611,4.478,3.719,4.622Zm-3.394-5.055.108-.181,3.286-4.4h0a.28.28,0,0,0,.361.072c.036-.036.072-.036.072-.072L164,85.867l-.181.253h0l-3.286,4.441c-.506-.686-1.8-2.455-3.611-4.478Z" transform="translate(-39.165 -33.835)" fill="#ed3237"/>
    <path id="Path_6" data-name="Path 6" d="M165.074,52.287,183.02,28.635c-1.156-.144-4.369-.325-6.5,1.192-5.091,3.647-14.155,17.3-14.516,17.8-.036.036-.036.072-.072.072a.28.28,0,0,1-.361-.072,10.517,10.517,0,0,0-5.633-4.08,10,10,0,0,0-5.453.217,2.463,2.463,0,0,0-.758.4c-.108.108-.181.181-.144.217,0,.036.072.108.181.181h0c5.6,3.575,10.941,10.616,12.061,12.133l3.25-4.4Z" transform="translate(-40.426)" fill="#ed3237"/>
    <path id="Path_7" data-name="Path 7" d="M229.4,63.255V58.2h1.986V50.4h5.055v7.8h5.091v5.055h-5.055V79.974h-5.055V63.255ZM244.566,58.2h5.055v2.167a11.609,11.609,0,0,1,3.575-1.661,15.484,15.484,0,0,1,4.405-.578v5.055a8.772,8.772,0,0,0-3.1.542,8.33,8.33,0,0,0-2.528,1.481,7.177,7.177,0,0,0-1.733,2.167,5.552,5.552,0,0,0-.614,2.636v9.966h-5.055Zm13.4,10.869a11.493,11.493,0,0,1,.939-4.622,11.766,11.766,0,0,1,2.564-3.755,12.728,12.728,0,0,1,3.755-2.528,11.62,11.62,0,0,1,4.622-.939,11.492,11.492,0,0,1,4.622.939,12.278,12.278,0,0,1,3.755,2.528,11.865,11.865,0,0,1,3.467,8.377V80.01h-5.055V78.782a11.487,11.487,0,0,1-6.789,2.13,12.656,12.656,0,0,1-4.911-.9,10.934,10.934,0,0,1-3.755-2.528,11.083,11.083,0,0,1-2.383-3.755,13.461,13.461,0,0,1-.831-4.658Zm5.055,0a6.5,6.5,0,0,0,.542,2.636,7,7,0,0,0,1.48,2.167,6.9,6.9,0,0,0,2.167,1.444,6.5,6.5,0,0,0,2.636.542,7.134,7.134,0,0,0,2.636-.506,6.752,6.752,0,0,0,2.2-1.408,7,7,0,0,0,1.481-2.167,6.7,6.7,0,0,0,.506-2.708,6.5,6.5,0,0,0-.542-2.636,7,7,0,0,0-1.48-2.167,6.9,6.9,0,0,0-2.167-1.444,6.685,6.685,0,0,0-5.272,0,7.576,7.576,0,0,0-2.167,1.444,7,7,0,0,0-1.48,2.167,6.377,6.377,0,0,0-.542,2.636Z" transform="translate(-91.427 -13.965)" fill="#ed3237"/>
    <path id="Path_8" data-name="Path 8" d="M102.044,198.527c6.139-.831,15.419,3.9,15.419,3.9s-6.789,5.236-12.386,6.247c-5.236.975-11.266.036-11.736-4.189-.433-3.611,3.43-5.236,8.7-5.958Z" transform="translate(-4.478 -108.541)" fill="#d7df36"/>
    <path id="Path_9" data-name="Path 9" d="M101.691,198.027c6.211-.831,15.491,3.9,15.527,3.9l.253.144-.217.181c-.036,0-6.825,5.236-12.458,6.283-.506.072-.975.181-1.481.217a16.309,16.309,0,0,1-6.716-.506,5.053,5.053,0,0,1-3.719-3.719,1,1,0,0,1-.036-.325,4.156,4.156,0,0,1,2.311-4.225,16.853,16.853,0,0,1,6.536-1.95Zm15.094,4.116c-1.517-.758-9.533-4.478-15.058-3.755A18.4,18.4,0,0,0,95.3,200.23a3.789,3.789,0,0,0-2.13,3.9c0,.108.036.217.036.289.325,1.733,1.661,2.817,3.467,3.467a15.615,15.615,0,0,0,6.572.506c.506-.072.975-.144,1.444-.217,4.983-.9,10.869-5.128,12.1-6.03Z" transform="translate(-4.16 -108.222)" fill="#fefefe"/>
    <path id="Path_10" data-name="Path 10" d="M101.436,197.625c6.211-.831,15.455,3.828,15.6,3.9l.253.144a.132.132,0,0,1,.072.181.035.035,0,0,1-.036.036l-.217.181a47.142,47.142,0,0,1-6.753,4.225,21.458,21.458,0,0,1-5.778,2.094c-.253.036-.506.072-.722.108l-.758.108a17.644,17.644,0,0,1-3.647.072,11.845,11.845,0,0,1-3.105-.614,7.067,7.067,0,0,1-2.6-1.517,4.363,4.363,0,0,1-1.228-2.311c0-.072-.036-.108-.036-.181a.392.392,0,0,0-.036-.181,4.15,4.15,0,0,1,.469-2.528,4.959,4.959,0,0,1,1.914-1.842,12.972,12.972,0,0,1,2.925-1.192c1.083-.253,2.347-.506,3.683-.686Zm15.455,4.189c-.144-.072-9.316-4.694-15.419-3.9a24.134,24.134,0,0,0-3.647.722,13.041,13.041,0,0,0-2.853,1.155,4.913,4.913,0,0,0-1.805,1.733,3.744,3.744,0,0,0-.433,2.383h0a.217.217,0,0,0,.036.144c0,.072,0,.108.036.144a3.974,3.974,0,0,0,1.155,2.167,6.059,6.059,0,0,0,2.492,1.444,11.308,11.308,0,0,0,3.033.578,20.241,20.241,0,0,0,3.611-.072c.253-.036.506-.072.722-.108.253-.036.506-.072.722-.108a22.288,22.288,0,0,0,5.706-2.1,44.436,44.436,0,0,0,6.68-4.189l.072-.036-.108.036Zm-.614.072a44.846,44.846,0,0,0-8.269-3.033,18.564,18.564,0,0,0-6.5-.614,23.126,23.126,0,0,0-3.575.722,11.732,11.732,0,0,0-2.78,1.119,4.7,4.7,0,0,0-1.661,1.589,3.318,3.318,0,0,0-.4,2.167l.072.289a3.668,3.668,0,0,0,1.047,1.986,6.344,6.344,0,0,0,2.311,1.372,12.662,12.662,0,0,0,2.961.578,19.445,19.445,0,0,0,3.539-.072c.253-.036.469-.072.722-.108s.469-.072.722-.108a26.152,26.152,0,0,0,7.4-3,44.5,44.5,0,0,0,4.4-2.889Zm-8.2-3.286a47.158,47.158,0,0,1,8.522,3.142h0a.035.035,0,0,1,.036.036c.036.072.036.144-.036.181a45.959,45.959,0,0,1-4.658,3.033,25.247,25.247,0,0,1-7.475,3.033c-.253.036-.469.072-.722.108s-.506.072-.722.108a16.955,16.955,0,0,1-3.575.072,12.92,12.92,0,0,1-3.033-.578A6.126,6.126,0,0,1,94,206.327a4.257,4.257,0,0,1-1.155-2.13h0l-.072-.289h0a3.879,3.879,0,0,1,.433-2.347,5.009,5.009,0,0,1,1.769-1.7,10.933,10.933,0,0,1,2.853-1.156,29.625,29.625,0,0,1,3.647-.722,19.168,19.168,0,0,1,6.608.614Z" transform="translate(-3.906 -107.964)" fill="#fefefe"/>
    <path id="Path_11" data-name="Path 11" d="M95.722,177.961c3.755-4.947,13.649-8.161,13.649-8.161s-1.083,8.486-4.333,13.18c-3.033,4.369-7.944,7.98-11.266,5.344C90.919,186.085,92.508,182.186,95.722,177.961Z" transform="translate(-3.825 -90.25)" fill="#45b653"/>
    <path id="Path_12" data-name="Path 12" d="M95.308,177.469c3.792-4.983,13.686-8.2,13.722-8.2l.289-.072-.036.289c0,.036-1.083,8.522-4.369,13.252-.289.4-.578.794-.9,1.192a15.233,15.233,0,0,1-5.128,4.369,5.11,5.11,0,0,1-5.272,0c-.072-.072-.181-.108-.253-.181a4.215,4.215,0,0,1-1.372-4.622,17.5,17.5,0,0,1,3.322-6.03Zm13.541-7.764c-1.625.542-9.93,3.575-13.288,7.98a17.692,17.692,0,0,0-3.214,5.85,3.854,3.854,0,0,0,1.228,4.261,1.528,1.528,0,0,0,.253.181,4.784,4.784,0,0,0,4.911,0,15.641,15.641,0,0,0,4.983-4.261,12.394,12.394,0,0,0,.867-1.192c2.888-4.152,4.044-11.3,4.26-12.818Z" transform="translate(-3.52 -89.867)" fill="#fefefe"/>
    <path id="Path_13" data-name="Path 13" d="M94.9,177.052c3.791-4.947,13.577-8.2,13.794-8.269l.289-.108a.132.132,0,0,1,.181.072v.072c0,.108-.036.181-.036.289-.036.253-1.156,8.63-4.369,13.324-.144.217-.289.4-.433.614a6.946,6.946,0,0,1-.469.614,17.538,17.538,0,0,1-2.528,2.636,12.961,12.961,0,0,1-2.636,1.769,6.777,6.777,0,0,1-2.925.758,4.485,4.485,0,0,1-2.492-.758.5.5,0,0,0-.144-.108c-.036-.036-.108-.072-.144-.108a4.113,4.113,0,0,1-1.444-2.13,5.443,5.443,0,0,1,.036-2.636,11.343,11.343,0,0,1,1.228-2.889,33.868,33.868,0,0,1,2.094-3.142Zm13.9-7.98c-.217.072-9.93,3.286-13.649,8.161a29.332,29.332,0,0,0-2.094,3.1,12.354,12.354,0,0,0-1.192,2.853,4.871,4.871,0,0,0-.036,2.492,3.836,3.836,0,0,0,1.372,1.986l.108.108a.5.5,0,0,0,.144.108h0a4,4,0,0,0,2.347.722,6.252,6.252,0,0,0,2.78-.722,12.338,12.338,0,0,0,2.564-1.733,21.316,21.316,0,0,0,2.492-2.6c.144-.181.325-.4.469-.578.144-.217.289-.4.433-.614,3.214-4.658,4.3-12.963,4.333-13.216v-.072Zm-.361.506a46.587,46.587,0,0,0-5.741,2.455c-2.672,1.372-5.6,3.214-7.258,5.416a32.265,32.265,0,0,0-2.058,3.033,11.7,11.7,0,0,0-1.156,2.78,4.2,4.2,0,0,0-.036,2.311,3.55,3.55,0,0,0,1.228,1.842l.108.108c.036.036.072.072.108.072a3.638,3.638,0,0,0,2.167.65,5.95,5.95,0,0,0,2.6-.686,11.729,11.729,0,0,0,2.492-1.7,17.843,17.843,0,0,0,2.419-2.528c.144-.181.289-.4.433-.578s.289-.4.433-.578a25.7,25.7,0,0,0,3.105-7.366,50.207,50.207,0,0,0,1.155-5.236Zm-5.886,2.2a51.689,51.689,0,0,1,5.994-2.564h.072c.072,0,.144.072.108.144a47.272,47.272,0,0,1-1.156,5.416,25.636,25.636,0,0,1-3.142,7.439c-.144.217-.289.4-.433.614a3.646,3.646,0,0,1-.469.578,18.453,18.453,0,0,1-2.455,2.564,12.335,12.335,0,0,1-2.564,1.733,6.464,6.464,0,0,1-2.708.722,3.891,3.891,0,0,1-2.311-.722c-.036-.036-.072-.072-.108-.072l-.108-.108a3.762,3.762,0,0,1-1.336-1.986,4.734,4.734,0,0,1,.036-2.455,11.522,11.522,0,0,1,1.192-2.817,26.809,26.809,0,0,1,2.058-3.069c1.661-2.167,4.622-4.008,7.33-5.416Z" transform="translate(-3.256 -89.522)" fill="#fefefe"/>
    <path id="Path_14" data-name="Path 14" d="M87.527,172.519c-.831-6.139,3.9-15.419,3.9-15.419s5.236,6.789,6.247,12.386c.975,5.236.036,11.266-4.189,11.736C89.838,181.655,88.213,177.791,87.527,172.519Z" transform="translate(-0.721 -82.136)" fill="#21974e"/>
    <path id="Path_15" data-name="Path 15" d="M87.027,171.98c-.831-6.211,3.9-15.491,3.9-15.527l.144-.253.181.217c0,.036,5.236,6.825,6.283,12.458.072.469.181.975.217,1.48a16.31,16.31,0,0,1-.506,6.716c-.65,1.95-1.878,3.394-3.719,3.719a1,1,0,0,1-.325.036,4.156,4.156,0,0,1-4.225-2.311,16.66,16.66,0,0,1-1.95-6.535Zm4.116-15.094c-.758,1.517-4.478,9.533-3.755,15.058a18.4,18.4,0,0,0,1.842,6.428,3.789,3.789,0,0,0,3.9,2.13c.108,0,.217-.036.289-.036A4.7,4.7,0,0,0,96.885,177a15.615,15.615,0,0,0,.506-6.572c-.072-.469-.144-.975-.217-1.444-.9-4.983-5.128-10.869-6.03-12.1Z" transform="translate(-0.402 -81.561)" fill="#fefefe"/>
    <path id="Path_16" data-name="Path 16" d="M86.627,171.7c-.831-6.247,3.9-15.527,3.936-15.6h0l.108-.253a.132.132,0,0,1,.181-.072.035.035,0,0,1,.036.036h0l.181.217a47.141,47.141,0,0,1,4.225,6.752,21.461,21.461,0,0,1,2.094,5.778c.036.253.072.506.108.722l.108.758h0a17.647,17.647,0,0,1,.072,3.647,11.846,11.846,0,0,1-.614,3.105,7.068,7.068,0,0,1-1.517,2.6,4.364,4.364,0,0,1-2.311,1.228c-.072,0-.108.036-.181.036a.392.392,0,0,0-.181.036h0a4.15,4.15,0,0,1-2.528-.469,4.96,4.96,0,0,1-1.842-1.914,12.973,12.973,0,0,1-1.192-2.925c-.253-1.083-.506-2.347-.686-3.683Zm4.189-15.455c-.036.072-4.73,9.28-3.9,15.419a24.139,24.139,0,0,0,.722,3.647,13.042,13.042,0,0,0,1.156,2.853,4.913,4.913,0,0,0,1.733,1.8,3.7,3.7,0,0,0,2.383.433h0a.217.217,0,0,0,.144-.036c.072,0,.108,0,.144-.036a3.974,3.974,0,0,0,2.167-1.156,6.059,6.059,0,0,0,1.444-2.492,11.309,11.309,0,0,0,.578-3.069A20.242,20.242,0,0,0,97.315,170h0c-.036-.253-.072-.506-.108-.722-.036-.253-.072-.506-.108-.722a22.288,22.288,0,0,0-2.1-5.7,44.435,44.435,0,0,0-4.189-6.68l-.036-.072.036.144Zm.072.614a55.7,55.7,0,0,0-2.311,5.814,21.7,21.7,0,0,0-1.3,8.955A23.121,23.121,0,0,0,88,175.2a11.731,11.731,0,0,0,1.119,2.78,4.7,4.7,0,0,0,1.589,1.661,3.318,3.318,0,0,0,2.167.4l.289-.072h0a3.668,3.668,0,0,0,1.986-1.047,6.343,6.343,0,0,0,1.372-2.311,12.663,12.663,0,0,0,.578-2.961,19.444,19.444,0,0,0-.072-3.539c-.036-.253-.072-.469-.108-.722s-.072-.469-.108-.722a22.624,22.624,0,0,0-1.986-5.525,52.6,52.6,0,0,0-3.936-6.283ZM88.324,162.6a55.845,55.845,0,0,1,2.419-6.066h0a.035.035,0,0,1,.036-.036c.072-.036.144-.036.181.036A47.987,47.987,0,0,1,95,163.069a21.341,21.341,0,0,1,2.022,5.6c.036.253.072.469.108.722s.072.469.108.722a16.959,16.959,0,0,1,.072,3.575,12.92,12.92,0,0,1-.578,3.033,6.126,6.126,0,0,1-1.408,2.419,4.256,4.256,0,0,1-2.13,1.155h0l-.289.072h0a3.879,3.879,0,0,1-2.347-.433,5.009,5.009,0,0,1-1.7-1.769,10.932,10.932,0,0,1-1.156-2.853,29.624,29.624,0,0,1-.722-3.647c-.361-2.78.4-6.175,1.336-9.064Z" transform="translate(-0.146 -81.281)" fill="#fefefe"/>
  </g>
</svg>
