<svg xmlns="http://www.w3.org/2000/svg" width="18" height="18" viewBox="0 0 18 18">
  <g id="Group_2102" data-name="Group 2102" transform="translate(-312 -1078)">
    <g id="Group_913" data-name="Group 913" transform="translate(312 1078)">
      <g id="Group_894" data-name="Group 894">
        <g id="Group_889" data-name="Group 889">
          <g id="Group_888" data-name="Group 888">
            <rect id="Rectangle_547" data-name="Rectangle 547" width="18" height="18" fill="none"/>
            <g id="Group_887" data-name="Group 887" transform="translate(2.909 1.28)">
              <g id="Group_577" data-name="Group 577">
                <path id="Path_232" data-name="Path 232" d="M1142.683,470.02h-1.693a1.893,1.893,0,0,0-1.883-1.723h-1.83a1.894,1.894,0,0,0-1.883,1.723H1133.7a1.91,1.91,0,0,0-1.906,1.893v1.448a.583.583,0,0,0,.58.57h.68v8.581a1.882,1.882,0,0,0,1.876,1.893h6.527a1.885,1.885,0,0,0,1.876-1.893v-8.581h.679a.583.583,0,0,0,.58-.57v-1.448A1.916,1.916,0,0,0,1142.683,470.02Zm-5.406-.6h1.83a.775.775,0,0,1,.745.6h-3.321A.775.775,0,0,1,1137.278,469.424Zm4.926,13.089a.754.754,0,0,1-.75.766h-6.523a.754.754,0,0,1-.749-.766v-8.581h8.022Zm1.259-9.708h-10.54v-.892a.779.779,0,0,1,.779-.766h8.982a.78.78,0,0,1,.779.766Z" transform="translate(-1131.795 -468.297)" fill="#eb7276"/>
                <path id="Path_233" data-name="Path 233" d="M1140.295,481.787a.558.558,0,0,0,.56-.559v-4.936a.559.559,0,1,0-1.119,0v4.936A.558.558,0,0,0,1140.295,481.787Z" transform="translate(-1132.206 -468.656)" fill="#eb7276"/>
                <path id="Path_234" data-name="Path 234" d="M1136.727,481.787a.558.558,0,0,0,.56-.559v-4.936a.559.559,0,1,0-1.118,0v4.936A.558.558,0,0,0,1136.727,481.787Z" transform="translate(-1132.021 -468.656)" fill="#eb7276"/>
              </g>
            </g>
          </g>
        </g>
      </g>
    </g>
  </g>
</svg>
