<svg xmlns="http://www.w3.org/2000/svg" width="24.511" height="16.96" viewBox="0 0 24.511 16.96">
  <path id="Union_1" data-name="Union 1" d="M1.816,16.96A1.819,1.819,0,0,1,0,15.142V1.818A1.819,1.819,0,0,1,1.816,0H11.965A1.8,1.8,0,0,1,13.25.534l3.175,3.175a1.8,1.8,0,0,1,.534,1.284V9.68h-2.88a2.4,2.4,0,0,0,0,4.8h2.88v.662a1.82,1.82,0,0,1-1.818,1.817Zm4.24-4.846A2.422,2.422,0,1,0,8.479,9.691,2.425,2.425,0,0,0,6.056,12.114ZM2.421,2.877V6.814a.455.455,0,0,0,.454.455h8.783a.454.454,0,0,0,.454-.455V3.01a.457.457,0,0,0-.132-.321l-.132-.132a.455.455,0,0,0-.321-.133H2.875A.456.456,0,0,0,2.421,2.877ZM18.775,16.522a1.261,1.261,0,0,1,0-1.785l1.448-1.414H14.062a1.263,1.263,0,0,1,0-2.525h6.161L18.775,9.351A1.262,1.262,0,0,1,20.56,7.566l3.586,3.586a1.271,1.271,0,0,1,0,1.785L20.56,16.522a1.271,1.271,0,0,1-1.785,0Z" fill="#fff"/>
</svg>
