<svg id="Group_1549" data-name="Group 1549" xmlns="http://www.w3.org/2000/svg" width="23.423" height="20.443" viewBox="0 0 23.423 20.443">
  <path id="Path_285" data-name="Path 285" d="M13.731,17.162a.843.843,0,0,1-.842.843H3.281a.844.844,0,0,1-.843-.843V3.281a.844.844,0,0,1,.843-.843H7.414v5.1A1.219,1.219,0,0,0,8.633,8.756h5.1v2.024h2.437V7.033l-.357-.356v0L9.495.359l0,0L9.138,0H3.281A3.285,3.285,0,0,0,0,3.281V17.162a3.285,3.285,0,0,0,3.281,3.281h9.608a3.284,3.284,0,0,0,3.28-3.281V16.59H13.731Zm-3.88-13,2.157,2.158H9.851Z" fill="#fff"/>
  <path id="Path_286" data-name="Path 286" d="M23.317,12.957,20.342,9.465A1.249,1.249,0,0,0,19.5,9a1.265,1.265,0,0,0-.928.274,1.223,1.223,0,0,0-.149.142,1.487,1.487,0,0,0-.031,1.943l.968,1.137H10.75a1.418,1.418,0,0,0,.032,2.827h8.574l-.975,1.143A1.485,1.485,0,0,0,18.42,18.4a1.253,1.253,0,0,0,.866.419l.075,0a1.243,1.243,0,0,0,.828-.313,1.1,1.1,0,0,0,.142-.148l2.991-3.506a1.5,1.5,0,0,0-.006-1.9" transform="translate(-0.237 -0.225)" fill="#fff"/>
</svg>
