<svg xmlns="http://www.w3.org/2000/svg" width="24" height="24" viewBox="0 0 24 24">
  <g id="approvals" transform="translate(-129 -23)">
    <g id="Group_2012" data-name="Group 2012" transform="translate(-71.285 -244.648)">
      <path id="Path_214" data-name="Path 214" d="M211.114,283.624c0-.094.023-.181.027-.273a4.169,4.169,0,1,1,4.737-5.184,5.412,5.412,0,0,1,.76-.078,5.513,5.513,0,0,1,4.633,2.544c0-.018.01-.031.01-.05v-2.754c.166-.417-.25-.835-.666-.835l-1.334-.083a10.241,10.241,0,0,0-.583-1.419l.916-.918a.9.9,0,0,0,.25-.585.756.756,0,0,0-.25-.585l-1.916-1.92a.9.9,0,0,0-.583-.25.753.753,0,0,0-.583.25l-1,.918a5.569,5.569,0,0,0-1.415-.585v-1.335a.788.788,0,0,0-.833-.835h-2.75a.787.787,0,0,0-.832.835l-.084,1.335a10.21,10.21,0,0,0-1.415.585l-.918-.918a.9.9,0,0,0-.583-.25.757.757,0,0,0-.583.25l-2,1.92a.908.908,0,0,0,0,1.252l.916,1a7.173,7.173,0,0,0-.583,1.418h-1.334a.788.788,0,0,0-.832.836v2.754a.788.788,0,0,0,.832.835h1.334c.166.417.333.919.583,1.419l-.916.918a.9.9,0,0,0-.25.585.758.758,0,0,0,.25.585l1.916,1.92a.8.8,0,0,0,1.166,0l1-.918a5.522,5.522,0,0,0,1.415.583v1.253a.788.788,0,0,0,.833.835H213.2a.8.8,0,0,0,.654-.307A5.518,5.518,0,0,1,211.114,283.624Z" fill="#fff"/>
      <path id="Path_215" data-name="Path 215" d="M213.407,276.942a3.551,3.551,0,1,0,3.543,3.552A3.552,3.552,0,0,0,213.407,276.942Z" transform="translate(3.817 3.762)" fill="#fff"/>
      <path id="Path_216" data-name="Path 216" d="M215.323,278.844a.493.493,0,0,0-.692,0l-2.065,2.065-.79-.789a.481.481,0,0,0-.346-.144h0a.477.477,0,0,0-.345.144.487.487,0,0,0-.144.347.481.481,0,0,0,.144.344l1.135,1.136a.491.491,0,0,0,.694,0l2.411-2.413A.493.493,0,0,0,215.323,278.844Z" transform="translate(4.02 4.096)" fill="#3d404e"/>
    </g>
    <rect id="base" width="24" height="24" transform="translate(129 23)" fill="none"/>
  </g>
</svg>
