<svg xmlns="http://www.w3.org/2000/svg" xmlns:xlink="http://www.w3.org/1999/xlink" width="24" height="24" viewBox="0 0 24 24">
  <defs>
    <clipPath id="clip-path">
      <rect id="Rectangle_755" data-name="Rectangle 755" width="21.068" height="19.874" fill="#fff"/>
    </clipPath>
  </defs>
  <g id="csv" transform="translate(-101 -57)">
    <g id="Group_1565" data-name="Group 1565" transform="translate(102 59)">
      <g id="Group_1564" data-name="Group 1564" transform="translate(0 0)" clip-path="url(#clip-path)">
        <path id="Path_289" data-name="Path 289" d="M4.555,12.86a.41.41,0,0,1,.375-.192.537.537,0,0,1,.376.114.509.509,0,0,1,.132.374h.686a1.082,1.082,0,0,0-.359-.753,1.225,1.225,0,0,0-.835-.274A1.168,1.168,0,0,0,4.3,12.3a1.1,1.1,0,0,0-.42.486,1.716,1.716,0,0,0-.147.733v.142A1.509,1.509,0,0,0,4.053,14.7a1.12,1.12,0,0,0,.885.366,1.408,1.408,0,0,0,.607-.125.966.966,0,0,0,.412-.354,1.039,1.039,0,0,0,.16-.526H5.434a.483.483,0,0,1-.133.355.533.533,0,0,1-.363.111.42.42,0,0,1-.4-.2,1.381,1.381,0,0,1-.114-.653v-.2a1.234,1.234,0,0,1,.125-.613" transform="translate(-0.194 -0.632)" fill="#fff"/>
        <path id="Path_290" data-name="Path 290" d="M7.665,12.65a.415.415,0,0,1,.289.1.345.345,0,0,1,.107.27h.685a.818.818,0,0,0-.135-.464.892.892,0,0,0-.379-.313,1.336,1.336,0,0,0-.552-.11,1.524,1.524,0,0,0-.569.1.893.893,0,0,0-.391.282.677.677,0,0,0-.138.419.832.832,0,0,0,.554.749,3.586,3.586,0,0,0,.439.173,1.317,1.317,0,0,1,.375.175.283.283,0,0,1,.107.235.242.242,0,0,1-.1.207.439.439,0,0,1-.269.073.561.561,0,0,1-.385-.108.439.439,0,0,1-.118-.338H6.5a.891.891,0,0,0,.142.5.954.954,0,0,0,.423.34,1.531,1.531,0,0,0,.628.124,1.259,1.259,0,0,0,.774-.213.7.7,0,0,0,.282-.588.814.814,0,0,0-.463-.735,2.527,2.527,0,0,0-.485-.206,1.444,1.444,0,0,1-.413-.184.24.24,0,0,1-.011-.406.471.471,0,0,1,.291-.082" transform="translate(-0.339 -0.632)" fill="#fff"/>
        <path id="Path_291" data-name="Path 291" d="M9.771,12.173H9.009l.953,2.853h.753l.959-2.853h-.768l-.568,2.077Z" transform="translate(-0.47 -0.634)" fill="#fff"/>
        <path id="Path_292" data-name="Path 292" d="M13.349,16.684a.819.819,0,0,1-.819.82H3.19a.82.82,0,0,1-.82-.82V3.191a.821.821,0,0,1,.82-.821H7.208V7.328A1.185,1.185,0,0,0,8.392,8.513h4.956v1.853h2.37V6.837l-.345-.347h0L9.23.348h0L8.883,0H3.19A3.194,3.194,0,0,0,0,3.191V16.684a3.194,3.194,0,0,0,3.19,3.19h9.34a3.192,3.192,0,0,0,3.189-3.19V15.47h-2.37ZM9.577,4.045l2.1,2.1h-2.1Z" transform="translate(0 0)" fill="#fff"/>
        <path id="Path_293" data-name="Path 293" d="M21.662,13.2a.863.863,0,0,0-.189-.283L18.267,9.706a.874.874,0,0,0-1.235,1.236l1.716,1.716H13.538a.873.873,0,1,0,0,1.746h5.209l-1.473,1.474a.873.873,0,0,0,1.235,1.235l2.964-2.964a.876.876,0,0,0,.189-.952" transform="translate(-0.66 -0.493)" fill="#fff"/>
      </g>
    </g>
    <rect id="base" width="24" height="24" transform="translate(101 57)" fill="none"/>
  </g>
</svg>
