<svg xmlns="http://www.w3.org/2000/svg" width="24" height="24" viewBox="0 0 24 24">
  <g id="receipts" transform="translate(-57 -43)">
    <g id="Group_1544" data-name="Group 1544" transform="translate(-247.06 -1808.945)">
      <path id="Path_271" data-name="Path 271" d="M14.489,11.7a4.456,4.456,0,0,0,.341-.732H11.27a3.693,3.693,0,1,1-.12-5.054h3.737c-.092-.238-.2-.474-.323-.734l.813-.815a.8.8,0,0,0,.22-.517.676.676,0,0,0-.22-.519l-1.7-1.7a.8.8,0,0,0-.517-.222.672.672,0,0,0-.517.222l-.888.815A4.956,4.956,0,0,0,10.5,1.924V.74A.7.7,0,0,0,9.759,0H7.319a.7.7,0,0,0-.74.74L6.506,1.924a9.088,9.088,0,0,0-1.257.519l-.813-.815a.8.8,0,0,0-.518-.222.673.673,0,0,0-.517.222l-1.774,1.7a.8.8,0,0,0,0,1.111l.812.889a6.445,6.445,0,0,0-.517,1.258H.739A.7.7,0,0,0,0,7.334V9.776a.7.7,0,0,0,.74.741H1.922c.148.371.3.815.517,1.261l-.812.813a.8.8,0,0,0-.223.519.673.673,0,0,0,.223.518l1.7,1.7a.714.714,0,0,0,1.036,0l.887-.815a4.975,4.975,0,0,0,1.257.518v1.111a.7.7,0,0,0,.739.741h2.44a.7.7,0,0,0,.74-.741l.073-1.186a8.924,8.924,0,0,0,1.257-.518l.813.816a.713.713,0,0,0,1.035,0l1.7-1.7a.8.8,0,0,0,.222-.518.673.673,0,0,0-.222-.519Z" transform="translate(305.061 1855.233)" fill="#fff"/>
      <path id="Path_276" data-name="Path 276" d="M12.749,26.353a1.135,1.135,0,0,0,0-1.6L9.543,21.552a1.128,1.128,0,1,0-1.6,1.6l1.294,1.294H4.629a1.129,1.129,0,1,0,0,2.257H9.242L7.948,27.963a1.126,1.126,0,0,0,0,1.6,1.135,1.135,0,0,0,1.6,0Z" transform="translate(314.307 1838.001)" fill="#fff"/>
      <path id="Path_436" data-name="Path 436" d="M1.117,0H2.458a1.117,1.117,0,1,1,0,2.235H1.117A1.117,1.117,0,0,1,1.117,0Z" transform="translate(313.32 1862.444)" fill="#fff"/>
    </g>
    <rect id="base" width="24" height="24" transform="translate(57 43)" fill="none"/>
  </g>
</svg>
