<svg xmlns="http://www.w3.org/2000/svg" width="24" height="24" viewBox="0 0 24 24">
  <g id="receivables" transform="translate(-40 -87)">
    <g id="Group_2009" data-name="Group 2009" transform="translate(42 89)">
      <path id="Path_60" data-name="Path 60" d="M297.261,296.961a5.062,5.062,0,0,0,4.938-6.44l-3.17,3.17a1.465,1.465,0,0,1-2.072,0l-1.553-1.554a1.463,1.463,0,0,1,0-2.072l3.17-3.17a5.061,5.061,0,0,0-1.313-.192,5.1,5.1,0,0,0-4.785,6.936l-9.743,8.574a2.93,2.93,0,0,0,4.144,4.144l8.576-9.743A5.042,5.042,0,0,0,297.261,296.961Zm-12.456,8.792a1.465,1.465,0,1,1,1.466-1.465A1.466,1.466,0,0,1,284.806,305.753Z" transform="translate(-281.875 -286.703)" fill="#fff"/>
      <path id="Path_61" data-name="Path 61" d="M283.821,291.528a.641.641,0,0,0,.987.1l.314-.314L287.813,294l1.447-1.274-2.777-2.778.316-.316a.643.643,0,0,0-.1-.987l-2.759-1.837a.644.644,0,0,0-.81.08l-1.071,1.071a.641.641,0,0,0-.079.809Z" transform="translate(-281.875 -286.703)" fill="#fff"/>
      <path id="Path_62" data-name="Path 62" d="M296.814,298.079c-.128.009-.251.039-.381.039a5.6,5.6,0,0,1-1.158-.125l-2.715,3.084,4.359,4.358a1.28,1.28,0,0,0,1.813,0l1.813-1.813a1.28,1.28,0,0,0,0-1.813Z" transform="translate(-280.406 -285.296)" fill="#fff"/>
    </g>
    <rect id="base" width="24" height="24" transform="translate(40 87)" fill="none"/>
  </g>
</svg>
