<svg xmlns="http://www.w3.org/2000/svg" width="17.388" height="14.669" viewBox="0 0 17.388 14.669">
  <g id="home" transform="translate(-234.353 -14.567)">
    <g id="Group_357" data-name="Group 357" transform="translate(234.353 14.567)">
      <g id="Group_356" data-name="Group 356">
        <path id="Path_192" data-name="Path 192" d="M715.653,355.383a.575.575,0,0,0-.658,0l-8.1,5.555a.6.6,0,0,0-.17.824.616.616,0,0,0,.055.073l.669.774a.577.577,0,0,0,.779.1l6.763-4.641a.577.577,0,0,1,.658,0l6.771,4.63a.578.578,0,0,0,.779-.1l.668-.774a.6.6,0,0,0-.043-.841.555.555,0,0,0-.072-.057Z" transform="translate(-706.634 -355.28)" fill="#768198"/>
        <path id="Path_193" data-name="Path 193" d="M722.333,364.477l-5.6-3.885a.569.569,0,0,0-.658,0l-5.6,3.885a.6.6,0,0,0-.263.5V371.2a.588.588,0,0,0,.58.6h3.094a.588.588,0,0,0,.58-.6v-3.843a.588.588,0,0,1,.58-.6h2.707a.588.588,0,0,1,.581.6V371.2a.587.587,0,0,0,.58.6H722a.588.588,0,0,0,.581-.6v-6.224A.6.6,0,0,0,722.333,364.477Z" transform="translate(-707.718 -357.125)" fill="#768198"/>
      </g>
    </g>
  </g>
</svg>
