<svg xmlns="http://www.w3.org/2000/svg" width="16.043" height="16.058" viewBox="0 0 16.043 16.058">
  <g id="logout" transform="translate(-282.865 -182.831)">
    <g id="Group_2050" data-name="Group 2050" transform="translate(287.954 187.034)">
      <path id="Path_430" data-name="Path 430" d="M299.969,191.313a.774.774,0,0,0-.141-.14l-.58-.581L297,188.344a.93.93,0,0,0-1.269-.043.964.964,0,0,0,0,1.4l1.253,1.254h-6.845a.931.931,0,1,0,0,1.863h6.845l-1.253,1.253a.964.964,0,0,0,0,1.4.93.93,0,0,0,1.269-.043l2.227-2.227.013-.013.58-.58h.008l.127-.125h0a.93.93,0,0,0,0-1.169Z" transform="translate(-289.207 -188.071)" fill="#768198"/>
    </g>
    <path id="Path_431" data-name="Path 431" d="M293.339,184.991a2.162,2.162,0,0,0-2.16-2.16h-6.154a2.162,2.162,0,0,0-2.16,2.16v11.738a2.16,2.16,0,0,0,2.16,2.16h6.154a2.16,2.16,0,0,0,2.16-2.16v-2.963h-1.606v2.961a.556.556,0,0,1-.554.554h-6.154a.556.556,0,0,1-.554-.554V184.989a.556.556,0,0,1,.554-.554h6.154a.556.556,0,0,1,.554.554v2.891h1.606Z" transform="translate(0 0)" fill="#768198"/>
  </g>
</svg>
