<svg id="profile" xmlns="http://www.w3.org/2000/svg" width="14.85" height="15.576" viewBox="0 0 14.85 15.576">
  <path id="Path_432" data-name="Path 432" d="M643,359.518a4.166,4.166,0,1,0-4.161,3.988A4.089,4.089,0,0,0,643,359.518Z" transform="translate(-631.411 -355.174)" fill="#768198"/>
  <path id="Path_433" data-name="Path 433" d="M638.93,368.184a5.266,5.266,0,0,1-3.229,0,4.217,4.217,0,0,0-4.529,1.2,5.5,5.5,0,0,0-1.284,3.517,1.355,1.355,0,0,0,1.373,1.34h12.1a1.355,1.355,0,0,0,1.373-1.34,5.5,5.5,0,0,0-1.284-3.517,4.218,4.218,0,0,0-4.524-1.2Z" transform="translate(-629.888 -358.661)" fill="#768198"/>
</svg>
