<svg id="settings" xmlns="http://www.w3.org/2000/svg" width="15.588" height="15.587" viewBox="0 0 15.588 15.587">
  <g id="Group_2051" data-name="Group 2051" transform="translate(0 0)">
    <path id="Path_434" data-name="Path 434" d="M297.214,210.571l-1.091-.069a8.39,8.39,0,0,0-.477-1.163l.751-.751a.737.737,0,0,0,.2-.479.623.623,0,0,0-.2-.479l-1.57-1.573a.736.736,0,0,0-.479-.206h0a.624.624,0,0,0-.477.206l-.818.751a4.576,4.576,0,0,0-1.16-.479V205.24a.645.645,0,0,0-.683-.684h-2.251a.645.645,0,0,0-.681.684l-.069,1.091a8.371,8.371,0,0,0-1.16.479l-.751-.751a.739.739,0,0,0-.477-.206h0a.623.623,0,0,0-.477.206l-1.637,1.573a.743.743,0,0,0,0,1.026l.75.82a5.99,5.99,0,0,0-.477,1.163h-1.091a.645.645,0,0,0-.683.683v2.256a.645.645,0,0,0,.683.684h1.091c.137.341.273.751.477,1.161l-.75.751a.739.739,0,0,0-.2.479.624.624,0,0,0,.2.479l1.57,1.573a.659.659,0,0,0,.956,0l.818-.751a4.593,4.593,0,0,0,1.16.479v1.024a.645.645,0,0,0,.683.684h2.251a.645.645,0,0,0,.683-.684l.069-1.091a8.3,8.3,0,0,0,1.16-.479l.751.751a.659.659,0,0,0,.956,0l1.568-1.573a.739.739,0,0,0,.2-.479.624.624,0,0,0-.2-.479l-.75-.751a4.552,4.552,0,0,0,.477-1.161h1.024a.645.645,0,0,0,.683-.684v-2.255A.552.552,0,0,0,297.214,210.571Zm-7.17,5.264a3.418,3.418,0,1,1,3.41-3.418,3.381,3.381,0,0,1-3.4,3.418Z" transform="translate(-282.207 -204.554)" fill="#768198"/>
  </g>
  <ellipse id="Ellipse_74" data-name="Ellipse 74" cx="1.733" cy="1.738" rx="1.733" ry="1.738" transform="translate(6.108 6.124)" fill="#768198"/>
</svg>
